<svg width="26" height="25" viewBox="0 0 26 25" fill="none" xmlns="http://www.w3.org/2000/svg">
<g clip-path="url(#clip0_1_728)">
<path d="M21.8005 20.6799C21.3788 20.1199 20.857 19.6437 20.2609 19.2765L16.4767 16.944C15.5949 16.4001 14.881 15.6245 14.4126 14.7011L12.7069 11.3358C11.9579 9.85952 10.5967 8.78776 8.98599 8.40717L7.21972 7.98991C5.65458 7.61932 4.32224 6.59701 3.56106 5.17966L1.5181 1.37988C1.43309 1.22042 1.2503 1.13986 1.07473 1.18375C0.899711 1.22875 0.776367 1.38654 0.776367 1.56656V24.1102C0.776367 24.6036 1.17529 25.0014 1.66756 25.0014H23.2684C23.6056 25.0014 23.9151 24.8103 24.0668 24.5075C24.2173 24.2052 24.184 23.8441 23.9818 23.573L21.8005 20.6799Z" fill="#71717A"/>
<path d="M7.28568 4.7647C7.71016 5.12418 8.31855 5.16751 8.7897 4.87082L9.77368 4.25132C9.94592 4.14298 10.0893 3.99519 10.1932 3.81962L10.746 2.8812C10.9377 2.55673 10.9749 2.16391 10.8499 1.80888C10.7238 1.4533 10.4476 1.17216 10.0954 1.03993L9.24585 0.721564C8.77192 0.544326 8.23854 0.663781 7.88573 1.02492L7.54515 1.37384C7.41569 1.50608 7.27957 1.63164 7.13733 1.74999L6.58562 2.20781C6.29559 2.44894 6.12724 2.80564 6.12502 3.18234C6.1228 3.55959 6.28837 3.91796 6.57617 4.16187L7.28568 4.7647Z" fill="#71717A"/>
<path d="M13.3587 9.96765C13.4837 10.2638 13.7331 10.4888 14.0415 10.581L16.8767 11.425C17.1662 11.5106 17.4768 11.4711 17.7346 11.3167C17.993 11.1622 18.1724 10.9055 18.2324 10.611L18.463 9.46927C18.5213 9.17536 18.4547 8.86922 18.2791 8.62697L17.4851 7.53799C17.1984 7.14573 16.6856 6.99461 16.2322 7.17018L15.2394 7.55521C14.8599 7.70189 14.4582 7.77745 14.0504 7.77745C13.692 7.77745 13.3581 7.95636 13.1592 8.25472C12.9603 8.55308 12.9242 8.93033 13.0625 9.26092L13.3587 9.96765Z" fill="#71717A"/>
<path d="M23.9671 14.4066L22.6808 14.3716C22.3503 14.361 22.0402 14.5255 21.8619 14.8049L21.4468 15.4561C21.2491 15.7678 21.2502 16.1662 21.4541 16.4768L22.4764 18.0325C22.7553 18.458 23.3226 18.5836 23.7565 18.3153L24.7794 17.6819C25.0555 17.5096 25.2239 17.2079 25.2239 16.8829V15.6989C25.2227 14.9989 24.666 14.4266 23.9671 14.4066Z" fill="#71717A"/>
<path d="M14.4664 3.66238C14.7453 4.08797 15.3126 4.21354 15.7465 3.94518L16.8849 3.31179C17.1605 3.14067 17.445 2.83842 17.445 2.51339V1.32939C17.445 0.629886 16.7727 0.0576133 16.0738 0.0376115L14.7292 0.000385951C14.3975 -0.00905933 14.0591 0.1554 13.8813 0.434313L13.453 1.08493C13.2552 1.39662 13.2502 1.7961 13.453 2.10557L14.4664 3.66238Z" fill="#71717A"/>
</g>
<defs>
<clipPath id="clip0_1_728">
<rect width="25" height="25" fill="white" transform="translate(0.5)"/>
</clipPath>
</defs>
</svg>
