<svg width="26" height="25" viewBox="0 0 26 25" fill="none" xmlns="http://www.w3.org/2000/svg">
<g clip-path="url(#clip0_1_743)">
<path d="M5.43862 14.1462H13.3505L13.5702 14.4408C14.3343 15.4656 15.5045 16.0534 16.7807 16.0534C18.0569 16.0534 19.2271 15.4656 19.9912 14.4408L20.2109 14.1462H22.4518C24.1326 14.1462 25.5 12.7788 25.5 11.0979C25.5 9.43188 24.1956 8.09395 22.5303 8.05186L21.9476 8.03716L21.8311 7.46606C21.4533 5.61357 19.8042 4.26895 17.9101 4.26895C17.379 4.26895 16.8626 4.37168 16.3755 4.57422C14.9102 5.20693 13.9636 6.64624 13.9636 8.24238H12.4988C12.4988 6.28921 13.5364 4.50854 15.1909 3.53652C14.4357 1.71597 12.636 0.488281 10.6275 0.488281C8.53696 0.488281 6.66504 1.81221 5.96948 3.78271L5.802 4.25713L5.29907 4.27104C2.60801 4.34556 0.5 6.51392 0.5 9.20757C0.5 11.9307 2.71543 14.1462 5.43862 14.1462Z" fill="#71717A"/>
<path d="M4.62021 19.4047L3.94941 18.7339L4.62021 18.0631L3.58442 17.0273L2.91362 17.6981L2.24277 17.0273L1.20703 18.0631L1.87783 18.7339L1.20703 19.4047L2.24277 20.4405L2.91362 19.7697L3.58442 20.4405L4.62021 19.4047Z" fill="#71717A"/>
<path d="M11.3449 19.4047L10.674 18.7339L11.3449 18.0631L10.3091 17.0273L9.63828 17.6981L8.96743 17.0273L7.93164 18.0631L8.60249 18.7339L7.93164 19.4047L8.96743 20.4405L9.63828 19.7697L10.3091 20.4405L11.3449 19.4047Z" fill="#71717A"/>
<path d="M6.94673 21.0977L6.27593 21.7685L5.60513 21.0977L4.56934 22.1334L5.24014 22.8043L4.56934 23.4751L5.60513 24.5109L6.27593 23.8401L6.94673 24.5109L7.98252 23.4751L7.31172 22.8043L7.98252 22.1334L6.94673 21.0977Z" fill="#71717A"/>
<path d="M13.6704 21.0977L12.9996 21.7685L12.3288 21.0977L11.293 22.1334L11.9638 22.8043L11.293 23.4751L12.3288 24.5109L12.9996 23.8401L13.6704 24.5109L14.7062 23.4751L14.0354 22.8043L14.7062 22.1334L13.6704 21.0977Z" fill="#71717A"/>
<path d="M20.395 21.0977L19.7242 21.7685L19.0534 21.0977L18.0176 22.1334L18.6884 22.8043L18.0176 23.4751L19.0534 24.5109L19.7242 23.8401L20.395 24.5109L21.4308 23.4751L20.76 22.8043L21.4308 22.1334L20.395 21.0977Z" fill="#71717A"/>
<path d="M18.0685 19.4047L17.3977 18.7339L18.0685 18.0631L17.0327 17.0273L16.3619 17.6981L15.6911 17.0273L14.6553 18.0631L15.3261 18.7339L14.6553 19.4047L15.6911 20.4405L16.3619 19.7697L17.0327 20.4405L18.0685 19.4047Z" fill="#71717A"/>
<path d="M23.7573 17.0273L23.0865 17.6981L22.4157 17.0273L21.3799 18.0631L22.0507 18.7339L21.3799 19.4047L22.4157 20.4405L23.0865 19.7697L23.7573 20.4405L24.7931 19.4047L24.1223 18.7339L24.7931 18.0631L23.7573 17.0273Z" fill="#71717A"/>
</g>
<defs>
<clipPath id="clip0_1_743">
<rect width="25" height="25" fill="white" transform="translate(0.5)"/>
</clipPath>
</defs>
</svg>
