<svg width="19" height="41" viewBox="0 0 19 41" fill="none" xmlns="http://www.w3.org/2000/svg">
<path d="M9.8192 40.552C6.912 40.552 4.6856 39.724 3.14 38.068C1.6312 36.412 0.8768 34.0752 0.8768 31.0576V10.3024C0.8768 7.2848 1.6312 4.948 3.14 3.292C4.6856 1.636 6.912 0.808 9.8192 0.808C12.7264 0.808 14.9344 1.636 16.4432 3.292C17.9888 4.948 18.7616 7.2848 18.7616 10.3024V14.3872H13.0208V9.916C13.0208 7.524 12.0088 6.328 9.9848 6.328C7.9608 6.328 6.9488 7.524 6.9488 9.916V31.4992C6.9488 33.8544 7.9608 35.032 9.9848 35.032C12.0088 35.032 13.0208 33.8544 13.0208 31.4992V25.5928H18.7616V31.0576C18.7616 34.0752 17.9888 36.412 16.4432 38.068C14.9344 39.724 12.7264 40.552 9.8192 40.552Z" fill="white"/>
</svg>
