<svg width="24" height="25" viewBox="0 0 24 25" fill="none" xmlns="http://www.w3.org/2000/svg">
<path d="M23.078 14.1607C23.2635 14.6175 23.0436 15.1382 22.5869 15.3238L20.106 16.3327L22.4021 17.7124C22.8303 17.9569 22.9792 18.5023 22.7347 18.9305C22.4901 19.3586 21.9448 19.5076 21.5166 19.263C21.505 19.2565 21.4937 19.2496 21.4825 19.2425L19.1865 17.8631L19.4605 20.5282C19.5029 21.0195 19.139 21.4522 18.6478 21.4946C18.1676 21.5361 17.7412 21.1891 17.6843 20.7105L17.2736 16.7136L12.886 14.0779V19.1964L16.1003 21.6071C16.4948 21.903 16.5747 22.4626 16.2789 22.8571C15.983 23.2516 15.4234 23.3316 15.0289 23.0357L12.886 21.4286V24.1072C12.886 24.6003 12.4863 25.0001 11.9932 25.0001C11.5 25.0001 11.1003 24.6003 11.1003 24.1072V21.4286L8.95744 23.0357C8.56294 23.3316 8.00329 23.2516 7.70744 22.8571C7.41158 22.4626 7.49153 21.903 7.88603 21.6071L11.1003 19.1964V14.0779L6.71292 16.7142L6.30221 20.7111C6.25548 21.1661 5.87241 21.5123 5.41496 21.5128C5.38427 21.5129 5.35357 21.5114 5.32301 21.5081C4.83279 21.458 4.47594 21.0201 4.52597 20.5299C4.52604 20.5296 4.52604 20.5293 4.5261 20.5289L4.80002 17.8637L2.50411 19.2432C2.08722 19.5066 1.53575 19.3821 1.27241 18.9652C1.009 18.5484 1.13347 17.9969 1.55035 17.7335C1.56158 17.7265 1.57293 17.7196 1.58448 17.713L3.88053 16.3334L1.39966 15.3244C0.945856 15.1315 0.734364 14.6073 0.927231 14.1535C1.11581 13.7099 1.62245 13.496 2.07184 13.6703L5.79382 15.1839L10.2599 12.5L5.79343 9.81631L2.07146 11.3303C1.61174 11.5086 1.09446 11.2806 0.916134 10.8208C0.741761 10.3714 0.955655 9.86472 1.39928 9.6762L3.88014 8.66728L1.58403 7.28716C1.15579 7.04264 1.00692 6.49726 1.25145 6.06909C1.49597 5.64085 2.04134 5.49198 2.46952 5.7365C2.48107 5.74306 2.49243 5.74994 2.50365 5.75701L4.79957 7.13648L4.52565 4.47125C4.47535 3.98071 4.83221 3.54222 5.32275 3.49192C5.81329 3.44163 6.25178 3.79849 6.30208 4.28903L6.71279 8.28589L11.1003 10.922V5.80354L7.88596 3.39283C7.49134 3.0971 7.41113 2.53752 7.70685 2.14289C8.00258 1.74827 8.56217 1.66806 8.95679 1.96378C8.95699 1.96391 8.95718 1.96411 8.95744 1.96423L11.1003 3.57135V0.892887C11.1003 0.399752 11.5 0 11.9932 0C12.4863 0 12.886 0.399752 12.886 0.892887V3.57148L15.0289 1.96436C15.4234 1.66851 15.983 1.74846 16.2789 2.14296C16.5747 2.53745 16.4948 3.0971 16.1003 3.39296L12.886 5.80354V10.9221L17.2734 8.2857L17.6841 4.28883C17.7423 3.79913 18.1864 3.44942 18.6761 3.50756C19.1547 3.56441 19.5017 3.9909 19.4603 4.47106L19.1863 7.13622L21.4823 5.75675C21.8991 5.49341 22.4506 5.61781 22.714 6.03469C22.9773 6.45158 22.8529 7.00305 22.436 7.2664C22.4248 7.27347 22.4134 7.28035 22.4019 7.2869L20.1058 8.66657L22.5867 9.67549C23.0405 9.86842 23.252 10.3926 23.0591 10.8464C22.8705 11.2901 22.3639 11.5039 21.9145 11.3296L18.1925 9.81605L13.7264 12.5L18.1929 15.1836L21.9148 13.6701C22.3709 13.4841 22.8913 13.703 23.0772 14.159C23.0774 14.1596 23.0777 14.1601 23.078 14.1607Z" fill="#71717A"/>
</svg>
