<svg width="26" height="25" viewBox="0 0 26 25" fill="none" xmlns="http://www.w3.org/2000/svg">
<g clip-path="url(#clip0_1_788)">
<path d="M21.8388 3.66116C19.4779 1.30024 16.339 0 13 0C9.66119 0 6.52207 1.30024 4.16116 3.66116C1.80024 6.02207 0.5 9.16119 0.5 12.5C0.5 15.8388 1.80024 18.9779 4.16116 21.3388C6.52207 23.6998 9.66119 25 13 25C16.339 25 19.4779 23.6998 21.8388 21.3388C24.1998 18.9779 25.5 15.8388 25.5 12.5C25.5 9.16119 24.1998 6.02207 21.8388 3.66116ZM13 23.5352C6.91518 23.5352 1.96484 18.5848 1.96484 12.5C1.96484 6.41518 6.91518 1.46484 13 1.46484C19.0848 1.46484 24.0352 6.41518 24.0352 12.5C24.0352 18.5848 19.0848 23.5352 13 23.5352Z" fill="#71717A"/>
<path d="M12.9995 3.13672C7.8373 3.13672 3.6377 7.33651 3.6377 12.4987C3.6377 17.661 7.8373 21.8608 12.9995 21.8608C18.1618 21.8608 22.3614 17.661 22.3614 12.4987C22.3614 7.33651 18.1618 3.13672 12.9995 3.13672ZM12.9995 20.3959C8.64506 20.3959 5.10254 16.8532 5.10254 12.4987C5.10254 8.14427 8.64506 4.60156 12.9995 4.60156C17.354 4.60156 20.8965 8.14427 20.8965 12.4987C20.8965 16.8532 17.354 20.3959 12.9995 20.3959Z" fill="#71717A"/>
<path d="M15.6397 13.2186L15.1964 12.3322L13.6549 15.4151C13.5308 15.6632 13.2773 15.82 12.9998 15.82C12.7224 15.82 12.4688 15.6632 12.3448 15.4151L10.8033 12.332L10.36 13.2186C10.2358 13.4667 9.98233 13.6233 9.70481 13.6233H6.87793C7.40874 16.5202 9.95181 18.7228 12.9998 18.7228C16.0477 18.7228 18.5908 16.5204 19.1218 13.6233H16.2947C16.0174 13.6233 15.7637 13.4667 15.6397 13.2186Z" fill="#71717A"/>
<path d="M10.148 10.3696C10.2722 10.1214 10.5257 9.96463 10.8032 9.96463C11.0805 9.96463 11.3342 10.1214 11.4582 10.3696L12.9997 13.4526L14.5412 10.3696C14.6652 10.1214 14.9189 9.96463 15.1962 9.96463C15.4737 9.96463 15.7272 10.1214 15.8514 10.3696L16.7474 12.1611H19.2142C19.037 8.88698 16.3173 6.27734 12.9997 6.27734C9.68204 6.27734 6.96235 8.88698 6.78516 12.1611H9.25212L10.148 10.3696Z" fill="#71717A"/>
</g>
<defs>
<clipPath id="clip0_1_788">
<rect width="25" height="25" fill="white" transform="translate(0.5)"/>
</clipPath>
</defs>
</svg>
