<svg width="26" height="25" viewBox="0 0 26 25" fill="none" xmlns="http://www.w3.org/2000/svg">
<g clip-path="url(#clip0_1_795)">
<path d="M5.31818 7.41907C6.77335 7.41907 8.15464 6.82682 9.1592 5.81717C10.1639 6.82695 11.545 7.41907 13.0002 7.41907C14.4557 7.41907 15.8367 6.82708 16.8407 5.81756C17.8453 6.82708 19.2263 7.41907 20.6817 7.41907C22.6075 7.41907 24.4033 6.38207 25.3685 4.71292C25.6386 4.24563 25.4788 3.64777 25.0116 3.37764C24.5443 3.10776 23.9464 3.26726 23.6763 3.73456C23.0595 4.80154 21.912 5.46442 20.6819 5.46442C19.4515 5.46442 18.3037 4.80154 17.687 3.73456C17.5122 3.4325 17.1897 3.24628 16.8407 3.24641C16.4916 3.24641 16.1692 3.43263 15.9946 3.73482C15.3782 4.8018 14.231 5.46442 13.0005 5.46442C11.7705 5.46442 10.6227 4.8014 10.005 3.73416C9.83029 3.43224 9.50791 3.24628 9.1592 3.24628H9.15894C8.8101 3.24628 8.48771 3.43237 8.31309 3.73443C7.69633 4.8014 6.54882 5.46429 5.31857 5.46429C4.08818 5.46429 2.94041 4.8014 2.32365 3.73443C2.05352 3.26726 1.45565 3.10724 0.98836 3.37751C0.521068 3.64764 0.361178 4.2455 0.631441 4.71279C1.59613 6.38207 3.39206 7.41907 5.31818 7.41907Z" fill="#71717A"/>
<path d="M25.0116 10.5456C24.5443 10.2758 23.9464 10.4351 23.6763 10.9026C23.0595 11.9695 21.912 12.6324 20.6819 12.6324C19.4515 12.6324 18.3037 11.9695 17.687 10.9026C17.5122 10.6005 17.1897 10.4143 16.8407 10.4144C16.4916 10.4144 16.1692 10.6006 15.9946 10.9028C15.3782 11.9698 14.231 12.6324 13.0005 12.6324C11.7705 12.6324 10.6227 11.9694 10.005 10.9022C9.83029 10.6002 9.50791 10.4143 9.1592 10.4143H9.15894C8.8101 10.4143 8.48771 10.6004 8.31309 10.9024C7.69633 11.9694 6.54882 12.6323 5.31857 12.6323C4.08818 12.6323 2.94041 11.9694 2.32365 10.9024C2.05352 10.4351 1.45565 10.2752 0.98836 10.5455C0.521068 10.8156 0.361178 11.4135 0.631441 11.8808C1.59652 13.5501 3.39245 14.5871 5.3187 14.5871C6.77387 14.5871 8.15516 13.9948 9.15972 12.9852C10.1644 13.9949 11.5456 14.5871 13.0007 14.5871C14.4562 14.5871 15.8372 13.9951 16.8412 12.9856C17.8458 13.9951 19.2268 14.5871 20.6823 14.5871C22.608 14.5871 24.4038 13.5502 25.369 11.8808C25.6386 11.4136 25.4788 10.8158 25.0116 10.5456Z" fill="#71717A"/>
<path d="M25.0116 17.7135C24.5443 17.4435 23.9464 17.603 23.6763 18.0705C23.0595 19.1374 21.912 19.8003 20.6819 19.8003C19.4515 19.8003 18.3037 19.1374 17.687 18.0705C17.5122 17.7684 17.1897 17.5822 16.8407 17.5823C16.4916 17.5823 16.1692 17.7685 15.9946 18.0707C15.3782 19.1377 14.231 19.8003 13.0005 19.8003C11.7705 19.8003 10.6227 19.1373 10.005 18.0701C9.83029 17.7681 9.50791 17.5822 9.1592 17.5822H9.15894C8.8101 17.5822 8.48771 17.7683 8.31309 18.0703C7.69633 19.1373 6.54882 19.8002 5.31857 19.8002C4.08818 19.8002 2.94041 19.1373 2.32365 18.0703C2.05352 17.603 1.45565 17.4433 0.98836 17.7134C0.521068 17.9835 0.361178 18.5814 0.631441 19.0487C1.59652 20.718 3.39245 21.755 5.3187 21.755C6.77387 21.755 8.15516 21.1627 9.15972 20.1531C10.1644 21.1629 11.5456 21.755 13.0007 21.755C14.4562 21.755 15.8372 21.163 16.8412 20.1535C17.8458 21.163 19.2268 21.755 20.6823 21.755C22.608 21.755 24.4038 20.718 25.369 19.0487C25.6386 18.5815 25.4788 17.9837 25.0116 17.7135Z" fill="#71717A"/>
</g>
<defs>
<clipPath id="clip0_1_795">
<rect width="25" height="25" fill="white" transform="translate(0.5)"/>
</clipPath>
</defs>
</svg>
