<svg width="26" height="25" viewBox="0 0 26 25" fill="none" xmlns="http://www.w3.org/2000/svg">
<path d="M5.47402 17.1286C5.54606 17.1672 5.62669 17.1869 5.7084 17.1859C5.80458 17.1856 5.8988 17.1587 5.98062 17.1081C6.06244 17.0576 6.12866 16.9853 6.17194 16.8994L6.69277 15.8578C6.74333 15.7364 6.74608 15.6003 6.70049 15.477C6.6549 15.3536 6.56433 15.2521 6.44697 15.1928C6.32961 15.1334 6.19415 15.1207 6.06778 15.1571C5.94141 15.1935 5.83349 15.2763 5.76569 15.389L5.24486 16.4307C5.18308 16.5537 5.17251 16.6962 5.21545 16.8269C5.25839 16.9577 5.35135 17.0662 5.47402 17.1286Z" fill="#71717A"/>
<path d="M20.5261 15.1609C20.4031 15.0991 20.2606 15.0885 20.1299 15.1315C19.9991 15.1744 19.8906 15.2674 19.8282 15.39L19.3074 16.4317C19.2456 16.5547 19.235 16.6972 19.2779 16.8279C19.3209 16.9587 19.4139 17.0672 19.5365 17.1296C19.6086 17.1682 19.6892 17.1879 19.7709 17.1869C19.8671 17.1866 19.9613 17.1597 20.0431 17.1091C20.1249 17.0586 20.1912 16.9863 20.2344 16.9005L20.7553 15.8588C20.817 15.7358 20.8276 15.5933 20.7847 15.4625C20.7417 15.3318 20.6488 15.2233 20.5261 15.1609Z" fill="#71717A"/>
<path d="M4.95351 22.3395C5.02556 22.3781 5.10618 22.3978 5.18789 22.3968C5.28407 22.3965 5.37829 22.3696 5.46011 22.3191C5.54193 22.2685 5.60815 22.1963 5.65143 22.1104L6.17226 21.0687C6.22282 20.9473 6.22558 20.8113 6.17998 20.6879C6.13439 20.5646 6.04382 20.463 5.92646 20.4037C5.8091 20.3444 5.67364 20.3316 5.54727 20.368C5.4209 20.4044 5.31298 20.4873 5.24518 20.6L4.72435 21.6416C4.66257 21.7646 4.652 21.9071 4.69494 22.0379C4.73788 22.1686 4.83085 22.2771 4.95351 22.3395Z" fill="#71717A"/>
<path d="M14.5629 22.3968C14.6591 22.3965 14.7533 22.3696 14.8351 22.3191C14.9169 22.2685 14.9831 22.1963 15.0264 22.1104L15.5473 21.0687C15.5978 20.9473 15.6006 20.8113 15.555 20.6879C15.5094 20.5646 15.4188 20.463 15.3015 20.4037C15.1841 20.3444 15.0486 20.3316 14.9223 20.368C14.7959 20.4044 14.688 20.4873 14.6202 20.6L14.0993 21.6416C14.0376 21.7646 14.027 21.9071 14.0699 22.0379C14.1129 22.1686 14.2058 22.2771 14.3285 22.3395C14.4006 22.3781 14.4812 22.3978 14.5629 22.3968Z" fill="#71717A"/>
<path d="M19.016 22.3395C19.0881 22.3781 19.1687 22.3978 19.2504 22.3968C19.3466 22.3965 19.4408 22.3696 19.5226 22.3191C19.6044 22.2685 19.6706 22.1963 19.7139 22.1104L20.2348 21.0687C20.2853 20.9473 20.2881 20.8113 20.2425 20.6879C20.1969 20.5646 20.1063 20.463 19.989 20.4037C19.8716 20.3444 19.7361 20.3316 19.6098 20.368C19.4834 20.4044 19.3755 20.4873 19.3077 20.6L18.7868 21.6416C18.7251 21.7646 18.7145 21.9071 18.7574 22.0379C18.8004 22.1686 18.8933 22.2771 19.016 22.3395Z" fill="#71717A"/>
<path d="M7.79238 19.7914C7.88856 19.7911 7.98278 19.7642 8.0646 19.7136C8.14642 19.663 8.21264 19.5908 8.25592 19.5049L8.77676 18.4632C8.82731 18.3418 8.83007 18.2058 8.78448 18.0825C8.73888 17.9591 8.64832 17.8576 8.53096 17.7982C8.4136 17.7389 8.27813 17.7261 8.15176 17.7625C8.0254 17.7989 7.91748 17.8818 7.84967 17.9945L7.32884 19.0362C7.26706 19.1592 7.25649 19.3016 7.29943 19.4324C7.34237 19.5632 7.43534 19.6716 7.55801 19.7341C7.63005 19.7726 7.71067 19.7923 7.79238 19.7914Z" fill="#71717A"/>
<path d="M17.9226 17.7663C17.7996 17.7046 17.6571 17.694 17.5264 17.7369C17.3956 17.7799 17.2871 17.8728 17.2247 17.9955L16.7038 19.0372C16.6421 19.1602 16.6315 19.3026 16.6744 19.4334C16.7174 19.5642 16.8103 19.6726 16.933 19.7351C17.005 19.7737 17.0857 19.7934 17.1674 19.7924C17.2636 19.7921 17.3578 19.7652 17.4396 19.7146C17.5214 19.664 17.5876 19.5918 17.6309 19.5059L18.1518 18.4643C18.2135 18.3413 18.2241 18.1988 18.1812 18.068C18.1382 17.9372 18.0453 17.8288 17.9226 17.7663Z" fill="#71717A"/>
<path d="M21.6205 19.7341C21.6925 19.7726 21.7732 19.7923 21.8549 19.7914C21.9511 19.7911 22.0453 19.7642 22.1271 19.7136C22.2089 19.663 22.2751 19.5908 22.3184 19.5049L22.8393 18.4632C22.8898 18.3418 22.8926 18.2058 22.847 18.0825C22.8014 17.9591 22.7108 17.8576 22.5935 17.7982C22.4761 17.7389 22.3406 17.7261 22.2143 17.7625C22.0879 17.7989 21.98 17.8818 21.9122 17.9945L21.3913 19.0362C21.3296 19.1592 21.319 19.3016 21.3619 19.4324C21.4049 19.5632 21.4978 19.6716 21.6205 19.7341Z" fill="#71717A"/>
<path d="M3.10488 19.7914C3.20106 19.7911 3.29528 19.7642 3.3771 19.7136C3.45892 19.663 3.52514 19.5908 3.56842 19.5049L4.08926 18.4632C4.13981 18.3418 4.14257 18.2058 4.09698 18.0825C4.05138 17.9591 3.96082 17.8576 3.84346 17.7982C3.7261 17.7389 3.59063 17.7261 3.46426 17.7625C3.3379 17.7989 3.22998 17.8818 3.16217 17.9945L2.64134 19.0362C2.57956 19.1592 2.56899 19.3016 2.61193 19.4324C2.65487 19.5632 2.74784 19.6716 2.87051 19.7341C2.94255 19.7726 3.02318 19.7923 3.10488 19.7914Z" fill="#71717A"/>
<path d="M20.7451 7.50972C20.8545 6.90554 20.8278 6.28458 20.667 5.69201C20.4758 4.98132 20.0998 4.33395 19.5773 3.81573C19.0547 3.29752 18.4042 2.92696 17.6919 2.74175C16.9797 2.55654 16.2311 2.56329 15.5222 2.76131C14.8134 2.95933 14.1697 3.34155 13.6566 3.8691C13.2285 2.87972 12.4725 2.06813 11.5159 1.57105C10.5594 1.07397 9.46071 0.921787 8.40504 1.14014C7.34938 1.35849 6.40123 1.93403 5.72035 2.76979C5.03946 3.60555 4.66745 4.65046 4.66699 5.72847C4.66439 5.77879 4.66439 5.8292 4.66699 5.87951C3.78046 6.11828 2.99586 6.6394 2.43199 7.36398C1.86812 8.08855 1.55569 8.97711 1.54199 9.89514V9.94722C1.57743 11.198 2.10282 12.3847 3.00495 13.2518C3.90708 14.1189 5.11374 14.5968 6.36491 14.5826H21.3337C22.1625 14.5826 22.9573 14.2534 23.5434 13.6673C24.1294 13.0813 24.4587 12.2864 24.4587 11.4576C24.4788 10.9534 24.3983 10.4502 24.2218 9.97745C24.0452 9.50469 23.7762 9.07188 23.4305 8.7043C23.0847 8.33672 22.6691 8.04176 22.2081 7.83664C21.747 7.63153 21.2496 7.52039 20.7451 7.50972Z" fill="#71717A"/>
<path d="M10.2969 15.625L9.38548 18.0469C9.356 18.1258 9.34609 18.2107 9.35662 18.2943C9.36716 18.3779 9.39781 18.4576 9.44595 18.5268C9.49409 18.5959 9.55828 18.6524 9.63302 18.6912C9.70776 18.7301 9.79082 18.7503 9.87507 18.75H11.2605L9.87507 23.2865C9.84015 23.4013 9.84595 23.5246 9.89151 23.6357C9.93706 23.7467 10.0196 23.8386 10.1251 23.8958C10.208 23.9408 10.3016 23.9624 10.3959 23.9583C10.4711 23.9583 10.5455 23.942 10.6138 23.9106C10.6821 23.8791 10.7428 23.8332 10.7917 23.776L16.5209 17.0052C16.5856 16.9295 16.6273 16.8369 16.641 16.7383C16.6547 16.6397 16.6398 16.5392 16.5982 16.4488C16.5565 16.3583 16.4898 16.2817 16.406 16.228C16.3221 16.1744 16.2246 16.1458 16.1251 16.1458H14.2917L14.5001 15.625H10.2969Z" fill="#71717A"/>
</svg>
