<svg width="26" height="25" viewBox="0 0 26 25" fill="none" xmlns="http://www.w3.org/2000/svg">
<g clip-path="url(#clip0_1_878)">
<path d="M7.58457 22.8105C7.53848 23.3227 7.4709 23.6641 7.41621 23.9383C7.36504 24.1949 7.32832 24.3813 7.32832 24.607C7.32832 24.9965 7.49199 24.9965 7.62324 24.9965C8.17207 24.9965 9.11621 24.3371 9.27988 23.6289C9.26817 23.6242 9.25684 23.6203 9.24512 23.6152C8.51895 23.3285 7.98145 23.0773 7.58457 22.8105ZM7.6002 21.6891C7.88457 22.1445 8.44981 22.4055 9.55098 22.8402C11.2439 23.5082 12.4658 22.4387 13.5287 21.3223C10.8631 21.7508 8.85762 21.2195 7.33028 19.6363C7.31504 20.6137 7.33418 21.1906 7.55176 21.6059C7.57129 21.6316 7.5877 21.6594 7.6002 21.6891ZM6.63809 17.2086C8.17246 20.1418 10.3654 21.1051 13.8482 20.4199C15.6592 20.0637 17.2123 18.8492 18.2459 17.0215C17.2178 17.5664 16.0818 17.9746 14.8678 18.2137C11.7162 18.8332 8.82637 18.4215 6.63809 17.2086ZM3.65293 12.2867C4.78418 16.3172 9.32559 18.4527 14.7068 17.3953C16.2771 17.0867 17.7064 16.4754 18.917 15.6445C18.9545 15.6059 18.9986 15.5754 19.0475 15.5539C21.1217 14.0848 22.5299 11.9637 22.8643 9.62578C20.9076 11.3555 17.9615 12.7727 14.5295 13.4477C10.2252 14.2945 6.18692 13.7711 3.65293 12.2867ZM1.80996 8.55117C1.81973 8.64414 1.83418 8.73711 1.85176 8.82852C2.50645 12.1539 8.12207 13.8605 14.3689 12.6301C18.092 11.8977 21.2127 10.2863 22.9885 8.39922C23.0225 8.33437 23.0729 8.2793 23.1346 8.24023C24.24 7.00391 24.7682 5.65859 24.5147 4.36992C24.49 4.24414 24.4768 4.14883 24.4662 4.06875C23.083 6.20937 18.9619 8.31484 13.7232 9.34609C8.50684 10.3711 3.91387 9.99219 1.80996 8.55117ZM17.4998 -0.00390625C15.8756 -0.00390625 14.0178 0.171484 11.9967 0.569141C5.21895 1.90234 1.07051 4.85625 1.44863 6.77812C1.82676 8.7 6.78496 9.86211 13.5623 8.52812C20.3408 7.19453 24.4893 4.24102 24.1111 2.31914C23.8459 0.970312 21.3232 -0.00390625 17.4998 -0.00390625ZM5.03145 5.8418C4.9002 5.8418 4.7709 5.78008 4.68965 5.66445C4.55762 5.47578 4.60332 5.21641 4.79199 5.08398C9.9791 1.45 18.842 1.40742 19.2166 1.40742C19.4463 1.40742 19.633 1.59375 19.633 1.82383C19.633 2.05352 19.4463 2.24023 19.2166 2.24023C19.1271 2.24023 10.24 2.28398 5.26973 5.76602C5.19746 5.81758 5.11387 5.8418 5.03145 5.8418Z" fill="#71717A"/>
</g>
<defs>
<clipPath id="clip0_1_878">
<rect width="25" height="25" fill="white" transform="translate(0.5)"/>
</clipPath>
</defs>
</svg>
