<svg width="26" height="25" viewBox="0 0 26 25" fill="none" xmlns="http://www.w3.org/2000/svg">
<path d="M21.6488 22.7383C20.7386 22.0312 19.7621 21.1094 18.8597 19.9219C17.9652 18.7422 17.3324 17.543 16.8753 16.4063H16.1332L16.1253 17.9219C16.1253 18.7188 15.5746 19.3867 14.8207 19.5078C14.7347 19.5234 14.6488 19.5273 14.5628 19.5273C14.1449 19.5273 13.7543 19.3633 13.4574 19.0703C13.1605 18.7734 13.0003 18.3828 13.0003 17.9688V16.6016C13.0003 16.4922 12.9144 16.4063 12.805 16.4063C12.7308 16.4063 12.6839 16.4453 12.6644 16.4609C12.6488 16.4766 12.6097 16.5273 12.6097 16.6016V17.1406C12.6097 17.9375 12.0589 18.6055 11.305 18.7266C11.2191 18.7422 11.1332 18.7461 11.0472 18.7461C10.6293 18.7461 10.2386 18.582 9.94175 18.2891C9.64488 17.9922 9.48472 17.6016 9.48472 17.1875V16.7266C9.48472 16.5547 9.348 16.4141 9.17613 16.4063L8.9105 16.3906C8.473 17.4062 7.90269 18.4688 7.14097 19.5313C6.17222 20.8906 5.11363 21.9414 4.14488 22.7422C3.85972 22.9766 4.02379 23.4375 4.39097 23.4375H21.4105C21.7855 23.4375 21.9457 22.9688 21.6488 22.7383Z" fill="#71717A"/>
<path d="M14.6953 18.7383C15.082 18.6758 15.3438 18.3125 15.3438 17.9219V16.4141C15.3438 15.9766 15.6953 15.625 16.1328 15.625H16.582C16.043 14.0352 15.8437 12.625 15.7734 11.6523C15.7422 11.25 15.4023 10.9375 14.9922 10.9375H10.9687C10.5742 10.9375 10.2422 11.2305 10.1953 11.6211C10.0742 12.6367 9.80859 14.0469 9.21875 15.625C9.80078 15.6562 10.2656 16.1367 10.2656 16.7266V17.1875C10.2656 17.6602 10.6914 18.0391 11.1797 17.957C11.5664 17.8945 11.8281 17.5313 11.8281 17.1406V16.6016C11.8281 16.332 11.9375 16.0859 12.1133 15.9102C12.2891 15.7344 12.5352 15.625 12.8047 15.625C13.3438 15.625 13.7812 16.0625 13.7812 16.6016V17.9688C13.7812 18.4414 14.207 18.8203 14.6953 18.7383Z" fill="#71717A"/>
<path d="M8.25781 6.74219C8.42188 6.74219 8.58594 6.72266 8.73438 6.6875C8.73438 6.70703 8.73047 6.72656 8.73047 6.74219C8.73047 7.5625 9.57813 8.22266 10.6289 8.22266C10.7656 8.22266 10.8984 8.21094 11.0234 8.1875C10.9922 7.57031 10.8711 6.96094 10.6719 6.375C10.6016 6.17188 10.7109 5.94922 10.9141 5.87891C11.1172 5.8125 11.3398 5.91797 11.4102 6.125C11.4258 6.16797 11.4336 6.20703 11.4492 6.25H11.4375C11.5117 6.47266 11.5742 6.68359 11.625 6.89062C11.6367 6.9375 11.6484 6.98828 11.6562 7.03516C11.668 7.09375 11.6836 7.15234 11.6914 7.21094C11.7539 7.55078 11.7969 7.89453 11.8086 8.24219V8.25781C11.8086 8.25781 11.8125 8.25781 11.8164 8.25781C11.8203 8.375 11.8242 8.48828 11.8242 8.58984C11.8242 9.1875 11.75 9.71094 11.6523 10.1523H14.3398C14.2031 9.52734 14.168 8.98828 14.168 8.58984C14.168 8.47656 14.168 8.36719 14.1758 8.25781C14.1758 8.25781 14.1797 8.25781 14.1836 8.25391V8.23828C14.1992 7.89062 14.2383 7.54297 14.3047 7.19922C14.3125 7.14844 14.3242 7.10156 14.3359 7.05469C14.3477 6.99609 14.3633 6.94141 14.375 6.88281C14.4336 6.64063 14.5 6.42578 14.5586 6.24609H14.5469C14.5586 6.20312 14.5703 6.16406 14.5859 6.12109C14.6563 5.91406 14.8789 5.80859 15.082 5.875C15.2852 5.94531 15.3945 6.16797 15.3242 6.37109C15.125 6.95703 15.0039 7.56641 14.9727 8.18359C15.0977 8.20703 15.2305 8.21875 15.3672 8.21875C16.418 8.21875 17.2656 7.55859 17.2656 6.73828C17.2656 6.72266 17.2617 6.70313 17.2617 6.68359C17.4102 6.71875 17.5742 6.73828 17.7383 6.73828C18.7891 6.73828 19.6367 6.07812 19.6367 5.25781C19.6367 4.4375 18.7891 3.77734 17.7383 3.77734C17.7148 3.77734 17.6914 3.78125 17.668 3.78125C17.7109 3.66406 17.7383 3.53906 17.7383 3.41016C17.7383 2.58984 16.8906 1.92969 15.8438 1.92969C15.4766 1.92969 15.1406 2.01172 14.8516 2.15234C14.7148 2.21875 14.5508 2.19141 14.4375 2.08594C14.0938 1.76563 13.5781 1.55859 12.9961 1.55859C12.4141 1.55859 11.8984 1.76563 11.5547 2.08594C11.4414 2.19141 11.2773 2.21875 11.1406 2.15234C10.8516 2.01172 10.5156 1.92969 10.1484 1.92969C9.10156 1.92969 8.25391 2.58984 8.25391 3.41016C8.25391 3.53906 8.28125 3.66406 8.32422 3.78125C8.30078 3.78125 8.27734 3.77734 8.25391 3.77734C7.20313 3.77734 6.35547 4.44141 6.35547 5.25781C6.35547 6.07422 7.20313 6.73828 8.25391 6.73828L8.25781 6.74219Z" fill="#71717A"/>
<path d="M9.96509 9.99246C9.95337 9.77761 9.76978 9.61355 9.55493 9.62136C9.21899 9.64089 8.57056 9.75027 7.99634 10.2737C7.38306 10.8362 7.23853 11.5354 7.20337 11.8128C7.17603 12.0276 7.32837 12.2229 7.54321 12.2503H7.59399C7.78931 12.2503 7.95728 12.1057 7.98071 11.9065C8.00415 11.7151 8.10571 11.2346 8.52759 10.8479C8.93774 10.4729 9.41431 10.4104 9.60181 10.3987C9.81665 10.387 9.98071 10.2034 9.96899 9.98855L9.96509 9.99246Z" fill="#71717A"/>
<path d="M5.30036 10.3738C5.34723 10.3934 5.39801 10.4012 5.44489 10.4012C5.60114 10.4012 5.74567 10.3074 5.80817 10.1551C5.87848 9.97929 6.09723 9.53788 6.60504 9.26835C7.09723 9.00663 7.57379 9.06523 7.75739 9.10429C7.96833 9.14726 8.17536 9.01054 8.21833 8.7996C8.26129 8.58866 8.12458 8.38163 7.91364 8.33866C7.58551 8.27226 6.92926 8.21366 6.23786 8.57694C5.50348 8.96757 5.18317 9.60819 5.08161 9.86601C5.00348 10.0652 5.10114 10.2918 5.30036 10.3738Z" fill="#71717A"/>
<path d="M18.0231 11.9104C18.0465 12.1096 18.2145 12.2542 18.4098 12.2542H18.4606C18.6754 12.2268 18.8277 12.0315 18.8004 11.8167C18.7652 11.5393 18.6207 10.8401 18.0074 10.2776C17.4332 9.75027 16.7848 9.6409 16.4488 9.62527C16.2301 9.61746 16.0504 9.77762 16.0387 9.99637C16.027 10.2112 16.191 10.3948 16.4059 10.4065C16.5934 10.4182 17.0699 10.4807 17.4801 10.8557C17.902 11.2425 18.0035 11.7268 18.027 11.9143L18.0231 11.9104Z" fill="#71717A"/>
<path d="M18.0899 8.34037C17.879 8.38334 17.7423 8.59037 17.7852 8.80131C17.8282 9.01225 18.0313 9.14897 18.2462 9.106C18.4298 9.07084 18.9063 9.00834 19.3985 9.27006C19.9024 9.53959 20.1251 9.981 20.1954 10.1568C20.2579 10.3091 20.4024 10.4029 20.5587 10.4029C20.6056 10.4029 20.6563 10.3951 20.7032 10.3755C20.9024 10.2974 21.0001 10.0669 20.922 9.86772C20.8204 9.6099 20.5001 8.96928 19.7657 8.57865C19.0743 8.21537 18.4181 8.27006 18.0899 8.34037Z" fill="#71717A"/>
</svg>
