<svg width="26" height="25" viewBox="0 0 26 25" fill="none" xmlns="http://www.w3.org/2000/svg">
<path d="M20.0312 18.75C22.375 18.75 23.9375 16.6781 23.9375 14.1227C23.9375 11.5562 21.5289 10.7094 20.8125 7.8125C17.6141 9.22812 16.125 11.393 16.125 14.1227C16.125 16.6781 17.7203 18.75 20.0312 18.75ZM20.0312 14.0625C20.825 14.6359 21.8625 15.5641 22.375 16.4062C21.9031 17.2359 21.0914 17.9688 20.0312 17.9688C18.9813 17.9688 17.9641 17.2203 17.6875 16.4062C18.2 15.5273 19.25 14.6 20.0312 14.0625Z" fill="#71717A"/>
<path d="M13.7817 21.0929H23.938V23.4367H2.06297V21.0929H5.96922V17.1867H3.20828C2.31922 17.1867 1.77 16.2773 2.22703 15.5617L3.82938 13.0507L2.32781 11.7789C2.06219 11.5539 1.99188 11.1882 2.1575 10.8906L6.55516 3.20934C6.62625 3.08512 6.80516 3.11012 6.84422 3.2484C7.1825 4.43902 7.9575 5.77027 8.80828 7.04527L7.04188 10.1312C6.51766 11.0742 6.73875 12.2679 7.56766 12.9711L8.02781 13.3609L7.15984 14.7218C6.64422 15.5312 6.61141 16.5156 7.07156 17.3554C7.19578 17.582 7.35281 17.7843 7.5325 17.9625V21.0929H12.22V17.1867H9.45906C8.57 17.1867 8.02078 16.2773 8.47781 15.5617L10.0802 13.0507L8.57859 11.7789C8.31297 11.5539 8.24266 11.1882 8.40828 10.8906L12.8052 3.20934C12.8763 3.08512 13.0552 3.11012 13.0942 3.24762C13.6145 5.07809 15.163 7.24215 16.4388 9.02027C14.9606 10.7179 14.563 12.5992 14.563 14.1218C14.563 15.2531 14.8067 16.2929 15.238 17.1867H13.7817V21.0929Z" fill="#71717A"/>
</svg>
