<svg width="26" height="25" viewBox="0 0 26 25" fill="none" xmlns="http://www.w3.org/2000/svg">
<g clip-path="url(#clip0_1_739)">
<path d="M24.1467 14.8216C24.1419 14.8174 24.1387 14.8123 24.1339 14.8083C24.1129 14.7903 24.0902 14.7761 24.0672 14.7621C22.6892 13.7301 21.1937 12.9541 19.6674 12.4593C19.6384 12.4471 19.6089 12.4376 19.5787 12.4311C18.7039 12.1541 17.8214 11.9654 16.9462 11.8784C16.9402 11.8776 16.9339 11.8766 16.9279 11.8761C15.8997 11.7753 14.8834 11.8093 13.9062 11.9856C14.2999 9.3841 13.3592 6.67485 11.1007 3.89335C11.0842 3.86885 11.0649 3.8461 11.0437 3.8246C10.2417 2.84585 9.27817 1.85835 8.15117 0.8636C7.94442 0.6806 7.62792 0.70035 7.44567 0.9076C7.26292 1.1146 7.28267 1.4306 7.48967 1.6131C7.80267 1.8896 8.10092 2.16485 8.38767 2.4391L2.56067 9.26635C2.22042 8.9931 1.89242 8.71635 1.58067 8.4411C1.37367 8.25885 1.05742 8.27835 0.874922 8.48535C0.692422 8.69235 0.712172 9.00835 0.919172 9.1911C2.07592 10.2119 3.21417 11.0621 4.32617 11.7394C4.33142 11.7426 4.33667 11.7458 4.34217 11.7488C5.08067 12.1976 5.80717 12.5686 6.52042 12.8641C6.57242 12.8973 6.62842 12.9204 6.68667 12.9324C7.53317 13.2698 8.36017 13.4986 9.16417 13.6168C9.18267 13.6206 9.20142 13.6226 9.22017 13.6243C10.4409 13.7963 11.6084 13.7148 12.7092 13.3728C12.5799 17.1681 14.4699 21.2323 17.7577 24.1341C17.8527 24.2181 17.9709 24.2593 18.0882 24.2593C18.2267 24.2593 18.3644 24.2021 18.4632 24.0901C18.6459 23.8831 18.6262 23.5671 18.4192 23.3846C18.2389 23.2253 18.0649 23.0613 17.8937 22.8951L23.8794 15.8776C24.0614 16.0241 24.2422 16.1728 24.4192 16.3291C24.5142 16.4131 24.6324 16.4543 24.7497 16.4543C24.8882 16.4543 25.0259 16.3971 25.1247 16.2851C25.3074 16.0781 25.2877 15.7621 25.0807 15.5796C24.7774 15.3119 24.4642 15.0626 24.1469 14.8218L24.1467 14.8216ZM6.65092 11.8328C6.21117 11.6391 5.77842 11.4201 5.35492 11.1813L10.6707 4.9641C10.9684 5.3556 11.2384 5.7446 11.4789 6.1311L6.65092 11.8328ZM12.8377 12.2659C11.9977 12.5924 11.1412 12.7278 10.2847 12.7106L12.8949 9.68035C13.0394 10.5594 13.0207 11.4219 12.8377 12.2659ZM13.7324 13.0451C14.4114 12.8939 15.1139 12.8206 15.8299 12.8223L13.8072 15.1698C13.7087 14.4561 13.6824 13.7449 13.7324 13.0451ZM15.7269 20.2409C15.4644 19.8293 15.2244 19.4093 15.0104 18.9818L19.6384 13.4976C20.0989 13.6586 20.5562 13.8484 21.0079 14.0641L15.7269 20.2409Z" fill="#71717A"/>
</g>
<defs>
<clipPath id="clip0_1_739">
<rect width="25" height="25" fill="white" transform="translate(0.5)"/>
</clipPath>
</defs>
</svg>
