<svg width="12" height="12" viewBox="0 0 12 12" fill="none" xmlns="http://www.w3.org/2000/svg">
<g clip-path="url(#clip0_1_1174)">
<path d="M6.08067 0.871754L0.952 0.0924209C0.714 0.0550876 0.471333 0.120421 0.289333 0.274421C0.107333 0.433088 0 0.661754 0 0.899754V10.7324C0 10.9891 0.21 11.1991 0.466667 11.1991H1.98333V8.74909C1.98333 8.29642 2.34733 7.93242 2.8 7.93242H3.96667C4.41933 7.93242 4.78333 8.29642 4.78333 8.74909V11.1991H6.76667V1.67909C6.76667 1.27775 6.47733 0.937088 6.08067 0.871754ZM2.56667 6.88242H1.86667C1.67347 6.88242 1.51667 6.72562 1.51667 6.53242C1.51667 6.33922 1.67347 6.18242 1.86667 6.18242H2.56667C2.75987 6.18242 2.91667 6.33922 2.91667 6.53242C2.91667 6.72562 2.75987 6.88242 2.56667 6.88242ZM2.56667 5.48242H1.86667C1.67347 5.48242 1.51667 5.32562 1.51667 5.13242C1.51667 4.93922 1.67347 4.78242 1.86667 4.78242H2.56667C2.75987 4.78242 2.91667 4.93922 2.91667 5.13242C2.91667 5.32562 2.75987 5.48242 2.56667 5.48242ZM2.56667 4.08242H1.86667C1.67347 4.08242 1.51667 3.92562 1.51667 3.73242C1.51667 3.53922 1.67347 3.38242 1.86667 3.38242H2.56667C2.75987 3.38242 2.91667 3.53922 2.91667 3.73242C2.91667 3.92562 2.75987 4.08242 2.56667 4.08242ZM2.56667 2.68242H1.86667C1.67347 2.68242 1.51667 2.52562 1.51667 2.33242C1.51667 2.13922 1.67347 1.98242 1.86667 1.98242H2.56667C2.75987 1.98242 2.91667 2.13922 2.91667 2.33242C2.91667 2.52562 2.75987 2.68242 2.56667 2.68242ZM4.9 6.88242H4.2C4.0068 6.88242 3.85 6.72562 3.85 6.53242C3.85 6.33922 4.0068 6.18242 4.2 6.18242H4.9C5.0932 6.18242 5.25 6.33922 5.25 6.53242C5.25 6.72562 5.0932 6.88242 4.9 6.88242ZM4.9 5.48242H4.2C4.0068 5.48242 3.85 5.32562 3.85 5.13242C3.85 4.93922 4.0068 4.78242 4.2 4.78242H4.9C5.0932 4.78242 5.25 4.93922 5.25 5.13242C5.25 5.32562 5.0932 5.48242 4.9 5.48242ZM4.9 4.08242H4.2C4.0068 4.08242 3.85 3.92562 3.85 3.73242C3.85 3.53922 4.0068 3.38242 4.2 3.38242H4.9C5.0932 3.38242 5.25 3.53922 5.25 3.73242C5.25 3.92562 5.0932 4.08242 4.9 4.08242ZM4.9 2.68242H4.2C4.0068 2.68242 3.85 2.52562 3.85 2.33242C3.85 2.13922 4.0068 1.98242 4.2 1.98242H4.9C5.0932 1.98242 5.25 2.13922 5.25 2.33242C5.25 2.52562 5.0932 2.68242 4.9 2.68242Z" fill="black"/>
<path d="M10.5561 5.0592L7.2334 4.3634V11.1996H10.3834C10.8337 11.1996 11.2001 10.8333 11.2001 10.3829V5.8572C11.2001 5.47174 10.9373 5.14367 10.5561 5.0592ZM9.45006 9.7996H8.75006C8.55686 9.7996 8.40007 9.6428 8.40007 9.4496C8.40007 9.2564 8.55686 9.0996 8.75006 9.0996H9.45006C9.64327 9.0996 9.80007 9.2564 9.80007 9.4496C9.80007 9.6428 9.64327 9.7996 9.45006 9.7996ZM9.45006 8.3996H8.75006C8.55686 8.3996 8.40007 8.2428 8.40007 8.0496C8.40007 7.8564 8.55686 7.6996 8.75006 7.6996H9.45006C9.64327 7.6996 9.80007 7.8564 9.80007 8.0496C9.80007 8.2428 9.64327 8.3996 9.45006 8.3996ZM9.45006 6.9996H8.75006C8.55686 6.9996 8.40007 6.8428 8.40007 6.6496C8.40007 6.4564 8.55686 6.2996 8.75006 6.2996H9.45006C9.64327 6.2996 9.80007 6.4564 9.80007 6.6496C9.80007 6.8428 9.64327 6.9996 9.45006 6.9996Z" fill="black"/>
</g>
<defs>
<clipPath id="clip0_1_1174">
<rect width="11.2" height="11.2" fill="white"/>
</clipPath>
</defs>
</svg>
