<svg width="37" height="37" viewBox="0 0 37 37" fill="none" xmlns="http://www.w3.org/2000/svg">
<circle cx="18.5" cy="18.5" r="18.5" fill="#F4F4F5"/>
<g clip-path="url(#clip0_1_1126)">
<path d="M24.0423 12.957C24.6722 12.957 25.2763 13.2073 25.7217 13.6527C26.1671 14.0981 26.4173 14.7021 26.4173 15.332V21.6654C26.4173 22.2953 26.1671 22.8993 25.7217 23.3447C25.2763 23.7901 24.6722 24.0404 24.0423 24.0404H12.959C12.3291 24.0404 11.725 23.7901 11.2796 23.3447C10.8342 22.8993 10.584 22.2953 10.584 21.6654V15.332C10.584 14.7021 10.8342 14.0981 11.2796 13.6527C11.725 13.2073 12.3291 12.957 12.959 12.957H24.0423ZM18.5007 16.1237C17.8914 16.1237 17.3054 16.358 16.8639 16.7779C16.4225 17.1979 16.1593 17.7714 16.1288 18.3799L16.1257 18.4987C16.1257 18.9684 16.2649 19.4276 16.5259 19.8182C16.7869 20.2087 17.1578 20.5132 17.5918 20.6929C18.0258 20.8727 18.5033 20.9197 18.964 20.8281C19.4247 20.7364 19.8479 20.5102 20.18 20.1781C20.5122 19.8459 20.7384 19.4227 20.83 18.962C20.9217 18.5013 20.8746 18.0238 20.6949 17.5898C20.5151 17.1558 20.2107 16.7849 19.8201 16.524C19.4296 16.263 18.9704 16.1237 18.5007 16.1237ZM23.2586 17.707H23.2507C23.0407 17.707 22.8393 17.7904 22.6909 17.9389C22.5424 18.0874 22.459 18.2887 22.459 18.4987C22.459 18.7087 22.5424 18.91 22.6909 19.0585C22.8393 19.207 23.0407 19.2904 23.2507 19.2904H23.2586C23.4685 19.2904 23.6699 19.207 23.8184 19.0585C23.9668 18.91 24.0502 18.7087 24.0502 18.4987C24.0502 18.2887 23.9668 18.0874 23.8184 17.9389C23.6699 17.7904 23.4685 17.707 23.2586 17.707ZM13.7586 17.707H13.7507C13.6467 17.7076 13.5438 17.7285 13.448 17.7688C13.3521 17.8091 13.2652 17.8678 13.192 17.9417C13.1189 18.0156 13.061 18.1031 13.0217 18.1994C12.9824 18.2956 12.9624 18.3987 12.9629 18.5027C12.9635 18.6066 12.9845 18.7095 13.0247 18.8053C13.065 18.9012 13.1237 18.9881 13.1976 19.0613C13.2715 19.1344 13.3591 19.1923 13.4553 19.2316C13.5516 19.2709 13.6546 19.2909 13.7586 19.2904C13.9685 19.2904 14.1699 19.207 14.3184 19.0585C14.4668 18.91 14.5502 18.7087 14.5502 18.4987C14.5502 18.2887 14.4668 18.0874 14.3184 17.9389C14.1699 17.7904 13.9685 17.707 13.7586 17.707Z" fill="#71717A"/>
</g>
<defs>
<clipPath id="clip0_1_1126">
<rect width="19" height="19" fill="white" transform="translate(9 9)"/>
</clipPath>
</defs>
</svg>
