<svg width="26" height="25" viewBox="0 0 26 25" fill="none" xmlns="http://www.w3.org/2000/svg">
<g clip-path="url(#clip0_1_761)">
<path d="M14.4648 5.85938H13.5975C13.2941 5.00869 12.4888 4.39453 11.5352 4.39453C10.5223 4.39453 9.67593 5.08682 9.42266 6.02065C9.16953 5.91865 8.89468 5.85938 8.60547 5.85938C7.65186 5.85938 6.84648 6.47354 6.54312 7.32422H5.67578C3.65659 7.32422 2.01367 8.96714 2.01367 10.9863V12.4512C2.01367 12.856 2.34126 13.1836 2.74609 13.1836H4.21094C6.23013 13.1836 7.87305 11.5407 7.87305 9.52148V8.05664C7.87305 7.65254 8.20137 7.32422 8.60547 7.32422C9.00957 7.32422 9.33789 7.65254 9.33789 8.05664C9.33789 11.1873 9.33789 13.0192 9.33789 16.2109H6.4082V19.5781L7.77158 20.9966L11.5007 16.2109H10.8027C10.8027 13.0187 10.8027 11.1875 10.8027 8.05664V6.5918C10.8027 6.1877 11.1311 5.85938 11.5352 5.85938C11.9393 5.85938 12.2676 6.1877 12.2676 6.5918V8.05664C12.2676 10.0758 13.9105 11.7188 15.9297 11.7188H17.3945C17.7994 11.7188 18.127 11.3912 18.127 10.9863V9.52148C18.127 7.50229 16.484 5.85938 14.4648 5.85938Z" fill="#71717A"/>
<path d="M21.7891 0C19.7699 0 18.127 1.64292 18.127 3.66211C18.127 5.6813 19.7699 7.32422 21.7891 7.32422C23.8083 7.32422 25.4512 5.6813 25.4512 3.66211C25.4512 1.64292 23.8083 0 21.7891 0Z" fill="#71717A"/>
<path d="M14.4941 16.2109L18.1022 20.8671L19.3412 19.578V16.2109H14.4941Z" fill="#71717A"/>
<path d="M24.7676 16.2109H20.8125V19.3452L25.5 20.8937V16.9434C25.5 16.5385 25.1724 16.2109 24.7676 16.2109Z" fill="#71717A"/>
<path d="M12.9983 16.6719L8.79688 22.0632L11.6191 24.9996H14.1288L17.0759 21.9336L12.9983 16.6719Z" fill="#71717A"/>
<path d="M5.46807 20.7148L0.5 22.3546V24.2684C0.5 24.6732 0.827588 25.0008 1.23242 25.0008H9.5874L5.46807 20.7148Z" fill="#71717A"/>
<path d="M20.2809 20.7148L16.1611 25.0009H24.7677C25.1726 25.0009 25.5001 24.6733 25.5001 24.2685V22.4382L20.2809 20.7148Z" fill="#71717A"/>
<path d="M1.23242 16.2109C0.827588 16.2109 0.5 16.5385 0.5 16.9434V20.8102L4.94336 19.3452V16.2109H1.23242Z" fill="#71717A"/>
</g>
<defs>
<clipPath id="clip0_1_761">
<rect width="25" height="25" fill="white" transform="translate(0.5)"/>
</clipPath>
</defs>
</svg>
