<svg width="26" height="25" viewBox="0 0 26 25" fill="none" xmlns="http://www.w3.org/2000/svg">
<path fill-rule="evenodd" clip-rule="evenodd" d="M5.22884 9.99844C4.98717 9.8599 4.68926 9.8599 4.44759 9.99844L2.19238 11.3005C1.95072 11.4401 1.80176 11.6984 1.80176 11.9776V14.5818C1.80176 14.8609 1.95072 15.1193 2.19238 15.2589L4.44759 16.5609C4.68926 16.6995 4.98717 16.6995 5.22884 16.5609L7.48405 15.2589C7.72572 15.1193 7.87467 14.8609 7.87467 14.5818V11.9776C7.87467 11.6984 7.72572 11.4401 7.48405 11.3005L5.22884 9.99844Z" fill="#71717A"/>
<path fill-rule="evenodd" clip-rule="evenodd" d="M16.6868 9.99844C16.4452 9.8599 16.1473 9.8599 15.9056 9.99844L13.6504 11.3005C13.4087 11.4401 13.2598 11.6984 13.2598 11.9776V14.5818C13.2598 14.8609 13.4087 15.1193 13.6504 15.2589L15.9056 16.5609C16.1473 16.6995 16.4452 16.6995 16.6868 16.5609L18.9421 15.2589C19.1837 15.1193 19.3327 14.8609 19.3327 14.5818V11.9776C19.3327 11.6984 19.1837 11.4401 18.9421 11.3005L16.6868 9.99844Z" fill="#71717A"/>
<path fill-rule="evenodd" clip-rule="evenodd" d="M10.6146 15.2094C10.3729 15.0708 10.075 15.0708 9.83333 15.2094L7.57813 16.5115C7.33646 16.651 7.1875 16.9094 7.1875 17.1885V19.7927C7.1875 20.0719 7.33646 20.3302 7.57813 20.4698L9.83333 21.7719C10.075 21.9104 10.3729 21.9104 10.6146 21.7719L12.8698 20.4698C13.1115 20.3302 13.2604 20.0719 13.2604 19.7927V17.1885C13.2604 16.9094 13.1115 16.651 12.8698 16.5115L10.6146 15.2094Z" fill="#71717A"/>
<path fill-rule="evenodd" clip-rule="evenodd" d="M7.30182 9.66641L12.5102 4.45807C12.8154 4.15391 12.8154 3.65807 12.5102 3.35391C12.206 3.0487 11.7102 3.0487 11.406 3.35391L6.19766 8.56224C5.89245 8.86641 5.89245 9.36224 6.19766 9.66641C6.50182 9.97161 6.99766 9.97161 7.30182 9.66641Z" fill="#71717A"/>
<path fill-rule="evenodd" clip-rule="evenodd" d="M18.7598 9.66641L23.9682 4.45807C24.2734 4.15391 24.2734 3.65807 23.9682 3.35391C23.664 3.0487 23.1682 3.0487 22.864 3.35391L17.6557 8.56224C17.3505 8.86641 17.3505 9.36224 17.6557 9.66641C17.9598 9.97161 18.4557 9.97161 18.7598 9.66641Z" fill="#71717A"/>
<path fill-rule="evenodd" clip-rule="evenodd" d="M5.21882 7.58438L7.30215 5.50104C7.60736 5.19688 7.60736 4.70104 7.30215 4.39688C6.99798 4.09167 6.50215 4.09167 6.19798 4.39688L4.11465 6.48021C3.80944 6.78438 3.80944 7.28021 4.11465 7.58438C4.41882 7.88958 4.91465 7.88958 5.21882 7.58438Z" fill="#71717A"/>
<path fill-rule="evenodd" clip-rule="evenodd" d="M16.6768 7.58438L18.7602 5.50104C19.0654 5.19688 19.0654 4.70104 18.7602 4.39688C18.456 4.09167 17.9602 4.09167 17.656 4.39688L15.5727 6.48021C15.2674 6.78438 15.2674 7.28021 15.5727 7.58438C15.8768 7.88958 16.3727 7.88958 16.6768 7.58438Z" fill="#71717A"/>
</svg>
