<svg width="26" height="25" viewBox="0 0 26 25" fill="none" xmlns="http://www.w3.org/2000/svg">
<g clip-path="url(#clip0_1_802)">
<path d="M12.9999 6.2384C9.54718 6.2384 6.73828 9.04786 6.73828 12.5006C6.73828 15.9533 9.54718 18.7628 12.9999 18.7628C16.4521 18.7628 19.2615 15.9539 19.2615 12.5006C19.2615 9.0473 16.4521 6.2384 12.9999 6.2384Z" fill="#71717A"/>
<path d="M13.0001 4.3977C12.3253 4.3977 11.7783 3.85075 11.7783 3.17648V1.22177C11.7783 0.546944 12.3253 0 13.0001 0C13.6749 0 14.2219 0.546944 14.2219 1.22177V3.17648C14.2219 3.85075 13.6744 4.3977 13.0001 4.3977Z" fill="#71717A"/>
<path d="M13.0001 20.6017C12.3253 20.6017 11.7783 21.1487 11.7783 21.8235V23.7777C11.7783 24.4531 12.3253 25 13.0001 25C13.6749 25 14.2219 24.4531 14.2219 23.7777V21.8235C14.2219 21.1487 13.6744 20.6017 13.0001 20.6017Z" fill="#71717A"/>
<path d="M18.7286 6.77222C18.2519 6.29503 18.2519 5.52167 18.7286 5.04447L20.1109 3.66217C20.5875 3.18553 21.3614 3.18553 21.8386 3.66217C22.3158 4.13936 22.3158 4.91327 21.8386 5.38991L20.4563 6.77222C19.9797 7.24941 19.2063 7.24941 18.7286 6.77222Z" fill="#71717A"/>
<path d="M7.27047 18.2294C6.79328 17.7517 6.01992 17.7517 5.54273 18.2294L4.16042 19.6112C3.68378 20.0878 3.68323 20.8623 4.16042 21.3389C4.63761 21.8155 5.41153 21.8155 5.88817 21.3389L7.27047 19.956C7.74767 19.4794 7.74767 18.7055 7.27047 18.2294Z" fill="#71717A"/>
<path d="M21.1016 12.4991C21.1016 11.8243 21.6485 11.2773 22.3233 11.2773H24.278C24.9529 11.2773 25.4998 11.8243 25.4998 12.4991C25.4998 13.1739 24.9529 13.7203 24.278 13.7203H22.3233C21.6485 13.7203 21.1016 13.1739 21.1016 12.4991Z" fill="#71717A"/>
<path d="M4.8977 12.4991C4.8977 11.8243 4.35075 11.2773 3.67593 11.2773H1.72177C1.04694 11.2773 0.5 11.8243 0.5 12.4991C0.5 13.1739 1.04694 13.7203 1.72177 13.7203H3.67648C4.35075 13.7203 4.8977 13.1739 4.8977 12.4991Z" fill="#71717A"/>
<path d="M18.729 18.2286C19.2062 17.7519 19.9801 17.7519 20.4567 18.2286L21.839 19.6109C22.3162 20.087 22.3162 20.8614 21.839 21.3381C21.3618 21.8147 20.5885 21.8147 20.1113 21.3381L18.729 19.9558C18.2518 19.4786 18.2518 18.7052 18.729 18.2286Z" fill="#71717A"/>
<path d="M7.27068 6.77208C7.74787 6.29489 7.74787 5.52153 7.27068 5.04434L5.88837 3.66258C5.41118 3.18539 4.63782 3.18539 4.16063 3.66258C3.68344 4.13922 3.68344 4.91314 4.16063 5.38977L5.54294 6.77208C6.02013 7.24983 6.79349 7.24983 7.27068 6.77208Z" fill="#71717A"/>
</g>
<defs>
<clipPath id="clip0_1_802">
<rect width="25" height="25" fill="white" transform="translate(0.5)"/>
</clipPath>
</defs>
</svg>
