<svg width="26" height="25" viewBox="0 0 26 25" fill="none" xmlns="http://www.w3.org/2000/svg">
<path d="M15.478 0.426846L14.0825 9.75946H21.4765C21.6701 9.75946 21.8304 9.91972 21.8304 10.1134C21.8304 10.2002 21.7992 10.2803 21.7458 10.3404L11.1556 24.8301C11.0399 24.9882 10.8195 25.0215 10.6615 24.9058C10.5524 24.8279 10.5035 24.6966 10.5212 24.572L11.9168 15.2371H4.52285C4.327 15.2371 4.16895 15.079 4.16895 14.8854C4.16895 14.7986 4.2001 14.7185 4.25132 14.6562L14.8437 0.166397C14.9594 0.0105864 15.1798 -0.0228121 15.3378 0.0907133C15.4469 0.170889 15.4958 0.302188 15.478 0.426846Z" fill="#71717A"/>
</svg>
