<svg width="37" height="37" viewBox="0 0 37 37" fill="none" xmlns="http://www.w3.org/2000/svg">
<circle cx="18.5" cy="18.5" r="18.5" fill="#F4F4F5"/>
<g clip-path="url(#clip0_1_1117)">
<path d="M23.5382 12.6689C24.8463 13.9768 25.5944 15.7423 25.6244 17.5918C25.6544 19.4414 24.9639 21.2301 23.6989 22.5798L23.5382 22.746L20.1792 26.1043C19.753 26.5302 19.1808 26.7782 18.5785 26.7981C17.9763 26.8179 17.389 26.6081 16.9357 26.2112L16.8217 26.1043L13.4619 22.7452C12.1257 21.409 11.375 19.5968 11.375 17.7071C11.375 15.8174 12.1257 14.0051 13.4619 12.6689C14.7981 11.3327 16.6104 10.582 18.5 10.582C20.3897 10.582 22.202 11.3327 23.5382 12.6689ZM18.5 15.3321C18.1882 15.3321 17.8793 15.3935 17.5912 15.5129C17.303 15.6322 17.0412 15.8072 16.8207 16.0277C16.6001 16.2482 16.4252 16.5101 16.3058 16.7982C16.1865 17.0864 16.125 17.3952 16.125 17.7071C16.125 18.019 16.1865 18.3278 16.3058 18.6159C16.4252 18.9041 16.6001 19.1659 16.8207 19.3865C17.0412 19.607 17.303 19.7819 17.5912 19.9013C17.8793 20.0206 18.1882 20.0821 18.5 20.0821C19.1299 20.0821 19.734 19.8319 20.1794 19.3865C20.6248 18.9411 20.875 18.337 20.875 17.7071C20.875 17.0772 20.6248 16.4731 20.1794 16.0277C19.734 15.5823 19.1299 15.3321 18.5 15.3321Z" fill="#71717A"/>
</g>
<defs>
<clipPath id="clip0_1_1117">
<rect width="19" height="19" fill="white" transform="translate(9 9)"/>
</clipPath>
</defs>
</svg>
