<svg width="26" height="25" viewBox="0 0 26 25" fill="none" xmlns="http://www.w3.org/2000/svg">
<g clip-path="url(#clip0_1_841)">
<path d="M24.4346 12.9027C23.3515 12.9027 22.3329 13.3235 21.5648 14.0881C19.1011 16.9453 19.2637 16.7576 19.2474 16.774C18.4697 17.5528 17.1406 17.0023 17.1406 15.9005C17.1406 13.4806 17.1348 13.657 17.1542 13.5836L19.8759 3.4061C20.085 2.62337 19.6203 1.81544 18.8391 1.60578C18.0548 1.3956 17.253 1.86232 17.0438 2.64504C17.0428 2.65008 17.1024 2.43981 14.1932 12.6103C14.0651 13.0573 13.4024 12.9646 13.4024 12.4994V1.46969C13.4024 0.659245 12.7446 0 11.9362 0C11.1278 0 10.47 0.659245 10.47 1.46969V12.1769C10.47 12.6469 9.79798 12.7336 9.67773 12.2807L7.22824 3.12133C7.12643 2.74181 6.88349 2.42429 6.54379 2.22823C5.42005 1.57947 4.05852 2.61868 4.39621 3.88239L6.90819 13.2761C7.02996 13.7304 6.40242 13.9872 6.16931 13.5816L2.8494 7.81971C2.61549 7.41419 2.19368 7.18869 1.75771 7.18869C0.799541 7.18869 0.184094 8.2387 0.670061 9.08226L3.00161 13.1279C3.94713 14.7695 4.44711 16.6389 4.44711 18.5345C4.44711 22.0989 7.34114 24.9989 10.8979 24.9989H12.3701C14.2577 24.9989 16.0328 24.2626 17.3684 22.9259L25.1609 14.7534C25.3031 14.6411 25.4832 14.3366 25.4986 14.0266C25.5298 13.4142 25.0456 12.9027 24.4346 12.9027ZM16.3579 17.0643C13.4724 17.4488 11.2966 19.9371 11.2966 22.8528C11.2966 23.0756 11.1162 23.256 10.8934 23.256C10.6711 23.256 10.4902 23.0756 10.4902 22.8528C10.4902 19.5344 12.9669 16.7024 16.251 16.2649C16.4723 16.2357 16.6749 16.3909 16.7041 16.6117C16.7334 16.8324 16.5781 17.035 16.3579 17.0643Z" fill="#FAFAFA"/>
</g>
<defs>
<clipPath id="clip0_1_841">
<rect width="25" height="25" fill="white" transform="translate(0.5)"/>
</clipPath>
</defs>
</svg>
