<svg width="41" height="41" viewBox="0 0 41 41" fill="none" xmlns="http://www.w3.org/2000/svg">
<rect x="0.5" y="1" width="40" height="40" rx="19" fill="#FAFAFA"/>
<path opacity="0.4" d="M29.7484 25.0117C29.4568 25.793 28.8422 26.3867 28.0401 26.6576C26.9151 27.0326 25.7588 27.3138 24.5922 27.5117C24.4776 27.5326 24.363 27.5534 24.2484 27.5638C24.0609 27.5951 23.8734 27.6159 23.6859 27.6367C23.4568 27.668 23.2172 27.6888 22.9776 27.7096C22.3213 27.7617 21.6755 27.793 21.0193 27.793C20.3526 27.793 19.6859 27.7617 19.0297 27.6992C18.7485 27.6784 18.4776 27.6471 18.2068 27.6055C18.0505 27.5846 17.8943 27.5638 17.7485 27.543C17.6339 27.5221 17.5193 27.5117 17.4047 27.4909C16.2485 27.3034 15.1026 27.0221 13.988 26.6471C13.1547 26.3659 12.5193 25.7721 12.238 25.0117C11.9568 24.2617 12.061 23.3867 12.5089 22.6367L13.686 20.6784C13.936 20.2513 14.1651 19.4284 14.1651 18.9284V16.9909C14.1651 13.2096 17.238 10.1367 21.0193 10.1367C24.7901 10.1367 27.863 13.2096 27.863 16.9909V18.9284C27.863 19.4284 28.0922 20.2513 28.3526 20.6784L29.5297 22.6367C29.9568 23.3659 30.0401 24.2201 29.7484 25.0117Z" fill="#09090B"/>
<path d="M21.0026 19.207C20.5651 19.207 20.2109 18.8528 20.2109 18.4153V15.1862C20.2109 14.7487 20.5651 14.3945 21.0026 14.3945C21.4401 14.3945 21.7943 14.7487 21.7943 15.1862V18.4153C21.7839 18.8528 21.4297 19.207 21.0026 19.207Z" fill="#09090B"/>
<path d="M23.9479 28.8424C23.5104 30.0508 22.3542 30.9154 21 30.9154C20.1771 30.9154 19.3646 30.582 18.7917 29.9883C18.4583 29.6758 18.2083 29.2591 18.0625 28.832C18.1979 28.8529 18.3333 28.8633 18.4792 28.8841C18.7187 28.9154 18.9688 28.9466 19.2188 28.9674C19.8125 29.0195 20.4167 29.0508 21.0208 29.0508C21.6146 29.0508 22.2083 29.0195 22.7917 28.9674C23.0104 28.9466 23.2292 28.9362 23.4375 28.9049C23.6042 28.8841 23.7708 28.8633 23.9479 28.8424Z" fill="#09090B"/>
<circle cx="32.5" cy="5" r="4.5" fill="#4ADE80" stroke="white"/>
</svg>
