<svg width="26" height="25" viewBox="0 0 26 25" fill="none" xmlns="http://www.w3.org/2000/svg">
<g clip-path="url(#clip0_1_869)">
<path d="M23.1562 15.7227H18.4688C18.2874 15.7227 18.1136 15.7947 17.9854 15.9229C17.8572 16.0511 17.7852 16.225 17.7852 16.4063C17.7852 16.5876 17.8572 16.7614 17.9854 16.8896C18.1136 17.0178 18.2874 17.0898 18.4688 17.0898H23.1562C23.3031 17.0898 23.4477 17.1266 23.5767 17.1968C23.7057 17.267 23.8151 17.3684 23.8948 17.4918C23.9745 17.6152 24.022 17.7566 24.033 17.9031C24.044 18.0495 24.018 18.1964 23.9576 18.3303C23.8972 18.4642 23.8042 18.5808 23.6871 18.6694C23.57 18.7581 23.4325 18.816 23.2873 18.8379C23.142 18.8597 22.9936 18.8448 22.8556 18.7945C22.7176 18.7443 22.5944 18.6602 22.4973 18.55C22.3756 18.421 22.2087 18.3443 22.0316 18.3361C21.8545 18.3278 21.6811 18.3888 21.548 18.5059C21.415 18.6231 21.3327 18.7874 21.3185 18.9641C21.3043 19.1409 21.3593 19.3162 21.4719 19.4531C21.72 19.7349 22.0348 19.95 22.3875 20.0787C22.7402 20.2074 23.1195 20.2457 23.4908 20.19C23.8621 20.1343 24.2136 19.9864 24.5129 19.7598C24.8123 19.5332 25.0502 19.2352 25.2047 18.8931C25.3592 18.5509 25.4254 18.1754 25.3974 17.801C25.3693 17.4266 25.2479 17.0652 25.0441 16.7498C24.8404 16.4345 24.5608 16.1752 24.231 15.9958C23.9012 15.8163 23.5317 15.7224 23.1562 15.7227Z" fill="#71717A"/>
<path d="M5.96875 11.8164H1.28125C1.09995 11.8164 0.926075 11.8884 0.797876 12.0166C0.669678 12.1448 0.597656 12.3187 0.597656 12.5C0.597656 12.6813 0.669678 12.8552 0.797876 12.9834C0.926075 13.1116 1.09995 13.1836 1.28125 13.1836H5.96875C6.11563 13.1835 6.26019 13.2203 6.3892 13.2905C6.51821 13.3608 6.62757 13.4622 6.70727 13.5856C6.78698 13.7089 6.83449 13.8503 6.84547 13.9968C6.85645 14.1433 6.83055 14.2902 6.77013 14.424C6.7097 14.5579 6.61669 14.6745 6.49959 14.7632C6.38249 14.8519 6.24503 14.9098 6.09978 14.9316C5.95453 14.9535 5.80612 14.9386 5.66812 14.8883C5.53011 14.838 5.4069 14.7539 5.30977 14.6437C5.25151 14.5729 5.17959 14.5145 5.0983 14.472C5.017 14.4296 4.92799 14.4039 4.83657 14.3966C4.74515 14.3892 4.65318 14.4003 4.56614 14.4293C4.47911 14.4582 4.39879 14.5043 4.32996 14.565C4.26113 14.6256 4.2052 14.6994 4.16551 14.7821C4.12582 14.8648 4.10317 14.9546 4.09892 15.0463C4.09467 15.1379 4.10889 15.2294 4.14076 15.3154C4.17262 15.4014 4.22146 15.4801 4.28437 15.5469C4.5325 15.8287 4.84731 16.0437 5.20001 16.1725C5.55271 16.3012 5.93205 16.3394 6.30335 16.2837C6.67465 16.228 7.02606 16.0801 7.32545 15.8536C7.62484 15.627 7.86266 15.329 8.01717 14.9868C8.17167 14.6446 8.23793 14.2691 8.20989 13.8947C8.18185 13.5203 8.0604 13.1589 7.85664 12.8436C7.65289 12.5282 7.37333 12.269 7.04353 12.0895C6.71373 11.9101 6.34421 11.8162 5.96875 11.8164Z" fill="#71717A"/>
<path d="M5.1875 18.457H1.28125C1.09995 18.457 0.926075 18.5291 0.797876 18.6573C0.669678 18.7854 0.597656 18.9593 0.597656 19.1406C0.597656 19.3219 0.669678 19.4958 0.797876 19.624C0.926075 19.7522 1.09995 19.8242 1.28125 19.8242H5.1875C5.3688 19.8242 5.54268 19.7522 5.67087 19.624C5.79907 19.4958 5.87109 19.3219 5.87109 19.1406C5.87109 18.9593 5.79907 18.7854 5.67087 18.6573C5.54268 18.5291 5.3688 18.457 5.1875 18.457Z" fill="#71717A"/>
<path d="M20.8125 20.8008H18.4688C18.2874 20.8008 18.1136 20.8728 17.9854 21.001C17.8572 21.1292 17.7852 21.3031 17.7852 21.4844C17.7852 21.6657 17.8572 21.8396 17.9854 21.9677C18.1136 22.0959 18.2874 22.168 18.4688 22.168H20.8125C20.9938 22.168 21.1677 22.0959 21.2959 21.9677C21.4241 21.8396 21.4961 21.6657 21.4961 21.4844C21.4961 21.3031 21.4241 21.1292 21.2959 21.001C21.1677 20.8728 20.9938 20.8008 20.8125 20.8008Z" fill="#71717A"/>
<path d="M24.4739 8.30351C24.4817 8.27656 24.4896 8.2496 24.4966 8.22226C24.7034 7.44679 24.5942 6.62094 24.1929 5.9259C23.7916 5.23085 23.131 4.72339 22.356 4.51484C22.2632 4.48982 22.1692 4.46948 22.0743 4.4539C21.9999 3.67595 21.6272 2.95699 21.0345 2.44764C20.4418 1.93829 19.6749 1.67806 18.8946 1.72148C18.6983 1.36371 18.4316 1.04938 18.1105 0.797459C17.7895 0.545533 17.4208 0.361219 17.0266 0.255626C16.6324 0.150032 16.2209 0.125345 15.8169 0.183052C15.4129 0.240759 15.0248 0.379666 14.6759 0.591401C14.022 0.163554 13.228 0.00532848 12.46 0.149869C11.6921 0.294409 11.0099 0.7305 10.5564 1.36679C10.4665 1.33281 10.3747 1.30351 10.2829 1.27851C9.50713 1.07145 8.68089 1.1807 7.98557 1.58226C7.29026 1.98382 6.7827 2.64488 6.57432 3.42031C6.5669 3.44726 6.56026 3.47421 6.55362 3.50195C5.82138 3.68233 5.18286 4.12958 4.76312 4.7561C4.34338 5.38261 4.17266 6.14327 4.28439 6.88907C4.39612 7.63488 4.78226 8.3121 5.36717 8.78811C5.95209 9.26412 6.69364 9.50461 7.44659 9.46249C7.77672 10.0649 8.30245 10.5367 8.93695 10.8C9.57146 11.0633 10.2768 11.1023 10.9364 10.9105C11.3217 11.3024 11.8048 11.584 12.3357 11.726C12.8665 11.8681 13.4257 11.8654 13.9552 11.7184C14.3402 12.1104 14.8232 12.3922 15.354 12.5344C15.8849 12.6766 16.4441 12.6741 16.9735 12.5269C17.449 13.023 18.0794 13.342 18.7606 13.4313C19.4419 13.5205 20.1332 13.3747 20.7204 13.018C21.3515 13.4298 22.1135 13.5914 22.8574 13.4712C23.6013 13.351 24.2736 12.9576 24.7429 12.3681C25.2122 11.7785 25.4447 11.0351 25.3949 10.2832C25.3452 9.53128 25.0168 8.82496 24.4739 8.30234V8.30351Z" fill="#71717A"/>
<path d="M25.4023 24.2191C25.4024 24.1294 25.3847 24.0404 25.3504 23.9575C25.3161 23.8745 25.2657 23.7991 25.2022 23.7357C25.1388 23.6722 25.0634 23.6218 24.9804 23.5875C24.8975 23.5531 24.8085 23.5355 24.7188 23.5355H16.3098C15.8819 23.1386 15.5406 22.6577 15.3072 22.1228C15.0737 21.5879 14.9532 21.0106 14.9531 20.427C14.9533 18.2602 15.1432 16.0977 15.5207 13.9641C15.3452 13.9386 15.1713 13.9028 15 13.857C14.4845 13.7196 13.9979 13.4907 13.5633 13.1813C13.0322 13.2323 12.4963 13.1872 11.9812 13.048C11.8969 13.0254 11.8133 13 11.7305 12.9727C11.2757 15.4314 11.0469 17.9265 11.0469 20.427C11.0468 21.0106 10.9263 21.5879 10.6928 22.1228C10.4594 22.6577 10.1181 23.1386 9.69023 23.5355H1.28125C1.09995 23.5355 0.926075 23.6076 0.797876 23.7358C0.669678 23.864 0.597656 24.0378 0.597656 24.2191C0.597656 24.4004 0.669678 24.5743 0.797876 24.7025C0.926075 24.8307 1.09995 24.9027 1.28125 24.9027H24.7188C24.8085 24.9028 24.8975 24.8851 24.9804 24.8508C25.0634 24.8165 25.1388 24.7661 25.2022 24.7026C25.2657 24.6391 25.3161 24.5638 25.3504 24.4808C25.3847 24.3978 25.4024 24.3089 25.4023 24.2191Z" fill="#71717A"/>
</g>
<defs>
<clipPath id="clip0_1_869">
<rect width="25" height="25" fill="white" transform="translate(0.5)"/>
</clipPath>
</defs>
</svg>
