<svg width="26" height="25" viewBox="0 0 26 25" fill="none" xmlns="http://www.w3.org/2000/svg">
<g clip-path="url(#clip0_1_882)">
<path d="M17.0264 8.18794C17.1263 8.17974 17.227 8.17266 17.3292 8.16797C17.2274 8.16948 17.1264 8.17632 17.0264 8.18794Z" fill="#71717A"/>
<path d="M24.7679 19.8805C20.9327 19.8805 17.8261 19.0773 15.8763 17.5581C14.3493 16.3672 13.5074 14.7314 13.5074 12.9505C13.5074 10.4995 15.0862 8.4127 17.0258 8.1875C12.5018 8.55801 10.3458 12.4701 10.2615 16.044C10.1752 19.7196 12.1241 23.5885 16.632 24.2229H24.7678C25.1726 24.2229 25.5002 23.8953 25.5002 23.4905V20.613C25.5003 20.2081 25.1727 19.8805 24.7679 19.8805Z" fill="#71717A"/>
<path d="M8.79747 16.0103C8.84327 14.0605 9.41759 12.0249 10.557 10.3555C9.2152 11.4334 8.15445 12.8639 7.52291 14.5504C6.26202 17.9205 6.97071 21.3882 9.34718 24.2234H12.6292C9.93517 22.3371 8.72623 19.0413 8.79747 16.0103Z" fill="#71717A"/>
<path d="M24.1494 6.83003C21.9431 2.55624 17.1963 0.1265 12.1309 0.929821C6.34382 1.8411 0.216069 7.12393 0.512163 19.1967L0.500005 23.491C0.498492 23.8934 0.824664 24.2256 1.23243 24.2256H7.49767C5.39337 21.1636 4.85299 17.5066 6.15065 14.039C7.87219 9.43838 12.3695 6.49165 17.3609 6.7019C17.3646 6.70181 17.3678 6.69975 17.3715 6.69975C17.3782 6.69975 17.3864 6.70083 17.3931 6.70083C17.3969 6.70083 17.4006 6.70029 17.4044 6.70049C17.4062 6.70058 17.4078 6.70137 17.4095 6.70176C19.0296 6.70693 21.1983 7.0769 23.22 7.82881C23.8431 8.06055 24.4543 7.42075 24.1494 6.83003Z" fill="#71717A"/>
<path d="M25.2064 14.1704L19.2982 9.7759C19.0378 9.57991 18.6802 9.57991 18.4199 9.7759L15.0201 12.3257C14.9899 12.5277 14.9717 12.7366 14.9717 12.9531C14.9717 14.2721 15.6126 15.498 16.7763 16.4056C17.1688 16.7114 17.6239 16.9801 18.1267 17.218V16.2211C18.1267 15.817 18.455 15.4887 18.8591 15.4887C19.2632 15.4887 19.5915 15.817 19.5915 16.2211V17.7648C20.8461 18.1367 22.3702 18.351 24.0348 18.3997V15.1221L24.3281 15.342C24.6521 15.5859 25.1106 15.5201 25.353 15.1954C25.5962 14.8721 25.5304 14.4129 25.2064 14.1704Z" fill="#71717A"/>
</g>
<defs>
<clipPath id="clip0_1_882">
<rect width="25" height="25" fill="white" transform="translate(0.5)"/>
</clipPath>
</defs>
</svg>
